<svg data-v-423bf9ae="" xmlns="http://www.w3.org/2000/svg" viewBox="0 0 516 90" class="iconLeft"><!----><!----><!----><g data-v-423bf9ae="" id="bb48faad-f2b1-43b4-ae39-757c3058e808" fill="black" transform="matrix(4.160887634018687,0,0,4.160887634018687,168.66007407339188,-1.0610263460134064)"><path d="M3.60 7.85L3.60 7.85L3.60 7.85Q3.04 9.23 3.04 10.41L3.04 10.41L3.04 10.41Q3.04 11.59 3.52 12.15L3.52 12.15L3.52 12.15Q4.00 12.71 5.08 12.71L5.08 12.71L5.08 12.71Q5.73 12.71 6.22 12.25L6.22 12.25L6.22 12.25Q6.37 11.10 6.47 10.72L6.47 10.72L6.47 10.72Q6.71 9.80 7.20 9.80L7.20 9.80L7.20 9.80Q7.59 9.80 7.94 10.34L7.94 10.34L7.94 10.34Q8.29 10.88 8.27 11.26L8.27 11.26L8.27 11.26Q8.27 11.89 7.77 13.59L7.77 13.59L7.77 13.59Q8.75 12.85 10.02 11.40L10.02 11.40L10.02 11.40Q10.21 11.19 10.33 11.19L10.33 11.19L10.33 11.19Q10.53 11.19 10.53 11.65L10.53 11.65L10.53 11.65Q10.53 12.54 9.63 13.56L9.63 13.56L9.63 13.56Q8.74 14.57 7.25 15.18L7.25 15.18L7.25 15.18Q7.14 15.44 7.07 15.68L7.07 15.68L7.07 15.68Q7 15.92 6.89 16.25L6.89 16.25L6.89 16.25Q6.78 16.59 6.50 16.99L6.50 16.99L6.50 16.99Q6.22 17.39 5.80 17.67L5.80 17.67L5.80 17.67Q4.90 18.28 3.75 18.28L3.75 18.28L3.75 18.28Q2.59 18.28 1.81 17.77L1.81 17.77L1.81 17.77Q1.04 17.26 1.04 16.37L1.04 16.37L1.04 16.37Q1.04 15.93 1.46 15.65L1.46 15.65L1.46 15.65Q1.88 15.37 2.55 15.17L2.55 15.17L2.55 15.17Q3.22 14.97 4.06 14.81L4.06 14.81L4.06 14.81Q4.90 14.66 5.74 14.46L5.74 14.46L5.74 14.46Q5.85 14.14 5.91 13.86L5.91 13.86L5.91 13.86Q5.36 14.28 4.56 14.28L4.56 14.28L4.56 14.28Q2.90 14.28 1.95 13.59L1.95 13.59L1.95 13.59Q0.84 12.80 0.84 11.10L0.84 11.10L0.84 11.10Q0.84 8.89 1.96 6.90L1.96 6.90L1.96 6.90Q1.62 6.51 1.41 6.08L1.41 6.08L1.41 6.08Q1.20 5.66 1.20 5.43L1.20 5.43L1.20 5.43Q1.20 5.04 1.48 5.05L1.48 5.05L1.48 5.05Q1.67 5.05 1.90 5.28L1.90 5.28L1.90 5.28Q2.14 5.50 2.29 5.66L2.29 5.66L2.29 5.66Q2.44 5.81 2.60 5.94L2.60 5.94L2.60 5.94Q3.33 5.01 4.31 4.44L4.31 4.44L4.31 4.44Q5.29 3.86 6.47 3.86L6.47 3.86L6.47 3.86Q7.64 3.86 8.30 4.30L8.30 4.30L8.30 4.30Q8.96 4.73 8.96 5.81L8.96 5.81L8.96 5.81Q8.96 6.89 8.13 7.60L8.13 7.60L8.13 7.60Q7.29 8.32 5.81 8.32L5.81 8.32L5.81 8.32Q4.79 8.32 3.60 7.85ZM4.06 6.90L4.06 6.90L4.06 6.90Q4.83 7.24 5.92 7.24L5.92 7.24L5.92 7.24Q6.59 7.24 7 6.87L7 6.87L7 6.87Q7.41 6.51 7.41 6.08L7.41 6.08L7.41 6.08Q7.41 5.66 7.13 5.45L7.13 5.45L7.13 5.45Q6.86 5.25 6.41 5.25L6.41 5.25L6.41 5.25Q5.07 5.25 4.06 6.90ZM3.58 17.21L3.58 17.21L3.58 17.21Q4.54 17.21 5.25 15.78L5.25 15.78L5.25 15.78Q4.48 15.97 3.95 16.09L3.95 16.09L3.95 16.09Q3.42 16.20 3.09 16.28L3.09 16.28L3.09 16.28Q2.76 16.37 2.61 16.45L2.61 16.45L2.61 16.45Q2.46 16.53 2.46 16.69L2.46 16.69L2.46 16.69Q2.46 16.95 2.82 17.07L2.82 17.07L2.82 17.07Q3.18 17.19 3.58 17.21ZM18.42 11.14L18.42 11.14L18.42 11.14Q18.68 11.14 18.68 11.79L18.68 11.79L18.68 11.79Q18.68 12.14 18.38 12.63L18.38 12.63L18.38 12.63Q18.09 13.13 17.62 13.54L17.62 13.54L17.62 13.54Q17.15 13.96 16.58 14.22L16.58 14.22L16.58 14.22Q16.00 14.49 15.46 14.49L15.46 14.49L15.46 14.49Q14.71 14.49 14.46 13.19L14.46 13.19L14.46 13.19Q14.10 13.79 13.51 14.18L13.51 14.18L13.51 14.18Q12.92 14.56 11.93 14.56L11.93 14.56L11.93 14.56Q10.95 14.56 10.35 13.94L10.35 13.94L10.35 13.94Q9.74 13.33 9.76 12.45L9.76 12.45L9.76 12.45Q9.76 10.07 11.34 8.69L11.34 8.69L11.34 8.69Q12.01 8.12 12.59 7.94L12.59 7.94L12.59 7.94Q13.17 7.76 13.82 7.76L13.82 7.76L13.82 7.76Q14.46 7.76 14.87 7.98L14.87 7.98L14.87 7.98Q15.06 7.57 15.32 7.57L15.32 7.57L15.32 7.57Q15.81 7.57 16.25 8.00L16.25 8.00L16.25 8.00Q16.69 8.43 16.69 8.81L16.69 8.81L16.69 8.81Q16.49 9.27 16.11 9.91L16.11 9.91L16.11 9.91Q16.00 10.56 16.00 11.72L16.00 11.72L16.00 11.72Q16.00 12.88 16.30 12.88L16.30 12.88L16.30 12.88Q16.66 12.88 18.06 11.42L18.06 11.42L18.06 11.42Q18.31 11.14 18.42 11.14ZM11.82 11.98L11.82 11.98L11.82 11.98Q11.82 13.06 12.61 13.06L12.61 13.06L12.61 13.06Q13.47 13.05 14.03 12.15L14.03 12.15L14.03 12.15Q14.22 11.84 14.35 11.40L14.35 11.40L14.35 11.40Q14.35 9.83 14.63 8.71L14.63 8.71L14.63 8.71Q13.50 8.93 12.66 9.80L12.66 9.80L12.66 9.80Q11.82 10.67 11.82 11.98ZM25.65 10.19L25.65 10.19L25.65 10.19Q25.65 9.73 25.12 9.73L25.12 9.73L25.12 9.73Q24.75 9.73 24.30 10.44L24.30 10.44L24.30 10.44Q23.86 11.14 23.66 11.96L23.66 11.96L23.66 11.98L23.66 11.98Q23.66 12.46 23.81 12.96L23.81 12.96L23.81 12.96Q23.95 13.47 23.95 13.66L23.95 13.66L23.95 13.66Q23.95 14.14 22.76 14.60L22.76 14.60L22.76 14.60Q22.58 14.67 22.44 14.67L22.44 14.67L22.44 14.67Q22.09 14.67 21.96 14.31L21.96 14.31L21.96 14.31Q21.83 13.94 21.83 13.32L21.83 13.32L21.83 13.32Q21.83 12.70 21.86 12.14L21.86 12.14L21.86 12.14Q21.90 11.59 21.93 11.12L21.93 11.12L21.93 11.12Q21.97 10.65 22.00 10.30L22.00 10.30L22.00 10.30Q22.04 9.94 22.04 9.72L22.04 9.72L22.04 9.72Q22.04 9.24 21.60 9.24L21.60 9.24L21.60 9.24Q21.17 9.24 20.59 10.25L20.59 10.25L20.59 10.25Q20.02 11.27 20.02 11.87L20.02 11.87L20.02 11.87Q20.02 12.46 20.17 12.96L20.17 12.96L20.17 12.96Q20.31 13.47 20.31 13.66L20.31 13.66L20.31 13.66Q20.31 14.14 19.12 14.60L19.12 14.60L19.12 14.60Q18.94 14.67 18.80 14.67L18.80 14.67L18.80 14.67Q18.45 14.67 18.32 14.31L18.32 14.31L18.32 14.31Q18.19 13.94 18.19 13.19L18.19 13.19L18.19 13.19Q18.19 11.20 18.34 10.32L18.34 10.32L18.34 10.32Q18.55 9.02 19.29 7.85L19.29 7.85L19.29 7.85Q19.54 7.46 19.84 7.46L19.84 7.46L19.84 7.46Q20.30 7.46 20.69 8.22L20.69 8.22L20.69 8.22Q20.80 8.41 20.86 8.58L20.86 8.58L20.86 8.58Q21.53 7.74 22.44 7.74L22.44 7.74L22.44 7.74Q23.04 7.74 23.52 8.14L23.52 8.14L23.52 8.14Q24.00 8.54 24.00 9.14L24.00 9.14L24.00 9.30L24.00 9.30Q24.85 8.23 26.08 8.23L26.08 8.23L26.08 8.23Q26.84 8.23 27.23 8.62L27.23 8.62L27.23 8.62Q27.62 9.02 27.62 9.59L27.62 9.59L27.62 9.59Q27.62 10.16 27.54 10.63L27.54 10.63L27.54 10.63Q27.45 11.09 27.35 11.49L27.35 11.49L27.35 11.49Q27.24 11.90 27.16 12.21L27.16 12.21L27.16 12.21Q27.08 12.53 27.08 12.71L27.08 12.71L27.08 12.71Q27.08 12.88 27.19 12.88L27.19 12.88L27.19 12.88Q27.40 12.88 27.71 12.61L27.71 12.61L27.71 12.61Q28.01 12.35 28.32 12.03L28.32 12.03L28.32 12.03Q28.63 11.72 28.89 11.45L28.89 11.45L28.89 11.45Q29.15 11.19 29.25 11.19L29.25 11.19L29.25 11.19Q29.44 11.19 29.44 11.66L29.44 11.66L29.44 11.66Q29.44 12.64 28.45 13.57L28.45 13.57L28.45 13.57Q27.47 14.49 26.35 14.49L26.35 14.49L26.35 14.49Q25.34 14.49 25.34 12.66L25.34 12.66L25.34 12.66Q25.34 12.19 25.49 11.38L25.49 11.38L25.49 11.38Q25.65 10.57 25.65 10.19ZM32.00 12.92L32.00 12.92L32.00 12.92Q33.10 12.92 34.12 12.05L34.12 12.05L34.12 12.05Q34.50 11.73 34.73 11.46L34.73 11.46L34.73 11.46Q34.97 11.19 35.10 11.19L35.10 11.19L35.10 11.19Q35.29 11.19 35.29 11.58L35.29 11.58L35.29 11.58Q35.29 11.97 35.08 12.45L35.08 12.45L35.08 12.45Q34.87 12.94 34.38 13.40L34.38 13.40L34.38 13.40Q33.18 14.53 31.08 14.53L31.08 14.53L31.08 14.53Q29.41 14.53 28.81 13.33L28.81 13.33L28.81 13.33Q28.60 12.91 28.60 12.12L28.60 12.12L28.60 12.12Q28.60 11.34 28.91 10.49L28.91 10.49L28.91 10.49Q29.22 9.65 29.73 9.03L29.73 9.03L29.73 9.03Q30.24 8.41 30.91 8.07L30.91 8.07L30.91 8.07Q31.58 7.73 32.35 7.73L32.35 7.73L32.35 7.73Q33.11 7.73 33.52 8.11L33.52 8.11L33.52 8.11Q33.94 8.48 33.94 9.09L33.94 9.09L33.94 9.09Q33.94 9.69 33.63 10.07L33.63 10.07L33.63 10.07Q33.33 10.46 32.86 10.72L32.86 10.72L32.86 10.72Q32.38 10.98 31.80 11.18L31.80 11.18L31.80 11.18Q31.22 11.38 30.66 11.63L30.66 11.63L30.66 11.98L30.66 11.98Q30.67 12.49 31.08 12.70L31.08 12.70L31.08 12.70Q31.49 12.91 32.00 12.92ZM31.77 8.97L31.77 8.97L31.77 8.97Q31.04 8.97 30.76 10.67L30.76 10.67L30.76 10.67Q31.05 10.47 31.31 10.32L31.31 10.32L31.31 10.32Q31.57 10.16 31.77 10.02L31.77 10.02L31.77 10.02Q32.19 9.72 32.20 9.32L32.20 9.32L32.20 9.32Q32.20 8.97 31.77 8.97ZM39.98 12.03L39.98 12.03Q39.98 11.86 40.21 11.86L40.21 11.86L40.21 11.86Q40.43 11.86 41.59 12.17L41.59 12.17L41.59 12.17Q41.86 9.87 43.09 7.18L43.09 7.18L43.09 7.18Q43.53 6.20 44.13 6.20L44.13 6.20L44.13 6.20Q44.24 6.20 44.34 6.44L44.34 6.44L44.34 6.44Q44.45 6.68 44.45 7.03L44.45 7.03L44.45 7.03Q44.45 7.45 44.01 9.34L44.01 9.34L44.01 9.34Q43.57 11.23 43.43 12.63L43.43 12.63L43.43 12.63Q44.35 12.84 45.06 12.84L45.06 12.84L45.06 12.84Q45.77 12.84 46.35 12.47L46.35 12.47L46.35 12.47Q46.94 12.10 47.36 11.51L47.36 11.51L47.36 11.51Q48.23 10.26 48.23 8.51L48.23 8.51L48.23 8.51Q48.22 5.28 45.65 5.28L45.65 5.28L45.65 5.28Q44.74 5.29 42.43 6.09L42.43 6.09L42.43 6.09Q41.99 6.24 41.65 6.24L41.65 6.24L41.65 6.24Q41.31 6.24 41.31 6.05L41.31 6.05L41.31 6.05Q41.31 5.78 41.71 5.42L41.71 5.42L41.71 5.42Q42.10 5.05 42.71 4.72L42.71 4.72L42.71 4.72Q44.23 3.91 45.65 3.91L45.65 3.91L45.65 3.91Q47.61 3.91 48.87 4.96L48.87 4.96L48.87 4.96Q50.36 6.20 50.34 8.74L50.34 8.74L50.34 8.74Q50.34 9.81 50.01 10.86L50.01 10.86L50.01 10.86Q49.67 11.91 48.99 12.73L48.99 12.73L48.99 12.73Q48.30 13.55 47.25 14.06L47.25 14.06L47.25 14.06Q46.20 14.56 44.77 14.56L44.77 14.56L44.77 14.56Q44.20 14.56 43.32 14.31L43.32 14.31L43.32 14.31Q43.22 14.57 42.83 14.57L42.83 14.57L42.83 14.57Q42.10 14.57 41.84 14.33L41.84 14.33L41.84 14.33Q41.58 14.08 41.54 13.52L41.54 13.52L41.54 13.52Q40.87 13.15 40.42 12.74L40.42 12.74L40.42 12.74Q39.98 12.33 39.98 12.03L39.98 12.03ZM54.24 12.92L54.24 12.92L54.24 12.92Q55.33 12.92 56.35 12.05L56.35 12.05L56.35 12.05Q56.73 11.73 56.97 11.46L56.97 11.46L56.97 11.46Q57.20 11.19 57.33 11.19L57.33 11.19L57.33 11.19Q57.53 11.19 57.53 11.58L57.53 11.58L57.53 11.58Q57.53 11.97 57.32 12.45L57.32 12.45L57.32 12.45Q57.11 12.94 56.62 13.40L56.62 13.40L56.62 13.40Q55.41 14.53 53.31 14.53L53.31 14.53L53.31 14.53Q51.65 14.53 51.04 13.33L51.04 13.33L51.04 13.33Q50.83 12.91 50.83 12.12L50.83 12.12L50.83 12.12Q50.83 11.34 51.14 10.49L51.14 10.49L51.14 10.49Q51.45 9.65 51.96 9.03L51.96 9.03L51.96 9.03Q52.47 8.41 53.14 8.07L53.14 8.07L53.14 8.07Q53.82 7.73 54.58 7.73L54.58 7.73L54.58 7.73Q55.34 7.73 55.75 8.11L55.75 8.11L55.75 8.11Q56.17 8.48 56.17 9.09L56.17 9.09L56.17 9.09Q56.17 9.69 55.87 10.07L55.87 10.07L55.87 10.07Q55.57 10.46 55.09 10.72L55.09 10.72L55.09 10.72Q54.61 10.98 54.03 11.18L54.03 11.18L54.03 11.18Q53.45 11.38 52.89 11.63L52.89 11.63L52.89 11.98L52.89 11.98Q52.91 12.49 53.31 12.70L53.31 12.70L53.31 12.70Q53.72 12.91 54.24 12.92ZM54.00 8.97L54.00 8.97L54.00 8.97Q53.27 8.97 52.99 10.67L52.99 10.67L52.99 10.67Q53.28 10.47 53.54 10.32L53.54 10.32L53.54 10.32Q53.80 10.16 54.00 10.02L54.00 10.02L54.00 10.02Q54.42 9.72 54.43 9.32L54.43 9.32L54.43 9.32Q54.43 8.97 54.00 8.97ZM65.42 11.14L65.42 11.14L65.42 11.14Q65.67 11.14 65.67 11.79L65.67 11.79L65.67 11.79Q65.67 12.14 65.38 12.63L65.38 12.63L65.38 12.63Q65.09 13.13 64.62 13.54L64.62 13.54L64.62 13.54Q64.15 13.96 63.57 14.22L63.57 14.22L63.57 14.22Q63.00 14.49 62.45 14.49L62.45 14.49L62.45 14.49Q61.71 14.49 61.46 13.19L61.46 13.19L61.46 13.19Q61.10 13.79 60.51 14.18L60.51 14.18L60.51 14.18Q59.92 14.56 58.93 14.56L58.93 14.56L58.93 14.56Q57.95 14.56 57.34 13.94L57.34 13.94L57.34 13.94Q56.74 13.33 56.76 12.45L56.76 12.45L56.76 12.45Q56.76 10.07 58.34 8.69L58.34 8.69L58.34 8.69Q59.01 8.12 59.59 7.94L59.59 7.94L59.59 7.94Q60.17 7.76 60.82 7.76L60.82 7.76L60.82 7.76Q61.46 7.76 61.87 7.98L61.87 7.98L61.87 7.98Q62.06 7.57 62.31 7.57L62.31 7.57L62.31 7.57Q62.80 7.57 63.24 8.00L63.24 8.00L63.24 8.00Q63.69 8.43 63.69 8.81L63.69 8.81L63.69 8.81Q63.49 9.27 63.11 9.91L63.11 9.91L63.11 9.91Q63.00 10.56 63.00 11.72L63.00 11.72L63.00 11.72Q63.00 12.88 63.29 12.88L63.29 12.88L63.29 12.88Q63.66 12.88 65.06 11.42L65.06 11.42L65.06 11.42Q65.31 11.14 65.42 11.14ZM58.81 11.98L58.81 11.98L58.81 11.98Q58.81 13.06 59.61 13.06L59.61 13.06L59.61 13.06Q60.47 13.05 61.03 12.15L61.03 12.15L61.03 12.15Q61.22 11.84 61.35 11.40L61.35 11.40L61.35 11.40Q61.35 9.83 61.63 8.71L61.63 8.71L61.63 8.71Q60.49 8.93 59.65 9.80L59.65 9.80L59.65 9.80Q58.81 10.67 58.81 11.98ZM68.10 14.49L68.10 14.49L68.10 14.49Q66.09 14.50 65.37 12.99L65.37 12.99L65.37 12.99Q65.11 12.46 65.11 11.66L65.11 11.66L65.11 11.66Q65.11 10.85 65.25 9.94L65.25 9.94L65.25 9.94Q65.53 8.12 66.33 6.58L66.33 6.58L66.33 6.58Q66.74 5.80 67.24 5.24L67.24 5.24L67.24 5.24Q68.35 4.00 69.71 4.02L69.71 4.02L69.71 4.02Q70.31 4.02 70.65 4.35L70.65 4.35L70.65 4.35Q70.99 4.68 70.99 5.29L70.99 5.29L70.99 5.29Q70.99 5.91 70.63 6.53L70.63 6.53L70.63 6.53Q70.27 7.15 69.70 7.82L69.70 7.82L69.70 7.82Q69.13 8.48 68.45 9.21L68.45 9.21L68.45 9.21Q67.76 9.94 67.10 10.79L67.10 10.79L67.10 11.35L67.10 11.35Q67.10 12.14 67.44 12.50L67.44 12.50L67.44 12.50Q67.77 12.87 68.22 12.87L68.22 12.87L68.22 12.87Q69.43 12.87 70.35 11.68L70.35 11.68L70.35 11.68Q70.73 11.19 70.92 11.19L70.92 11.19L70.92 11.19Q71.12 11.19 71.12 11.66L71.12 11.66L71.12 11.66Q71.12 12.14 70.86 12.63L70.86 12.63L70.86 12.63Q70.60 13.13 70.18 13.54L70.18 13.54L70.18 13.54Q69.76 13.96 69.22 14.22L69.22 14.22L69.22 14.22Q68.67 14.49 68.10 14.49ZM68.85 6.97L68.85 6.97L68.85 6.97Q69.15 6.61 69.31 6.31L69.31 6.31L69.31 6.31Q69.48 6.02 69.48 5.71L69.48 5.71L69.48 5.71Q69.48 5.39 69.26 5.39L69.26 5.39L69.26 5.39Q68.77 5.39 68.17 6.40L68.17 6.40L68.17 6.40Q67.58 7.41 67.28 9.04L67.28 9.04L67.28 9.04Q67.76 8.32 68.16 7.83L68.16 7.83L68.16 7.83Q68.56 7.34 68.85 6.97ZM73.56 12.92L73.56 12.92L73.56 12.92Q74.65 12.92 75.67 12.05L75.67 12.05L75.67 12.05Q76.05 11.73 76.29 11.46L76.29 11.46L76.29 11.46Q76.52 11.19 76.65 11.19L76.65 11.19L76.65 11.19Q76.85 11.19 76.85 11.58L76.85 11.58L76.85 11.58Q76.85 11.97 76.64 12.45L76.64 12.45L76.64 12.45Q76.43 12.94 75.94 13.40L75.94 13.40L75.94 13.40Q74.73 14.53 72.63 14.53L72.63 14.53L72.63 14.53Q70.97 14.53 70.36 13.33L70.36 13.33L70.36 13.33Q70.15 12.91 70.15 12.12L70.15 12.12L70.15 12.12Q70.15 11.34 70.46 10.49L70.46 10.49L70.46 10.49Q70.77 9.65 71.28 9.03L71.28 9.03L71.28 9.03Q71.79 8.41 72.46 8.07L72.46 8.07L72.46 8.07Q73.14 7.73 73.90 7.73L73.90 7.73L73.90 7.73Q74.66 7.73 75.07 8.11L75.07 8.11L75.07 8.11Q75.49 8.48 75.49 9.09L75.49 9.09L75.49 9.09Q75.49 9.69 75.19 10.07L75.19 10.07L75.19 10.07Q74.89 10.46 74.41 10.72L74.41 10.72L74.41 10.72Q73.93 10.98 73.35 11.18L73.35 11.18L73.35 11.18Q72.77 11.38 72.21 11.63L72.21 11.63L72.21 11.98L72.21 11.98Q72.23 12.49 72.63 12.70L72.63 12.70L72.63 12.70Q73.04 12.91 73.56 12.92ZM73.32 8.97L73.32 8.97L73.32 8.97Q72.59 8.97 72.31 10.67L72.31 10.67L72.31 10.67Q72.60 10.47 72.86 10.32L72.86 10.32L72.86 10.32Q73.12 10.16 73.32 10.02L73.32 10.02L73.32 10.02Q73.74 9.72 73.75 9.32L73.75 9.32L73.75 9.32Q73.75 8.97 73.32 8.97ZM78.19 12.10L78.19 12.10L78.27 13.80L78.27 13.80Q78.27 14.14 77.92 14.41L77.92 14.41L77.92 14.41Q77.57 14.67 76.97 14.67L76.97 14.67L76.97 14.67Q76.62 14.67 76.49 14.31L76.49 14.31L76.49 14.31Q76.36 13.94 76.36 13.24L76.36 13.24L76.36 13.24Q76.36 11.77 76.50 10.94L76.50 10.94L76.50 10.94Q76.65 10.11 77.08 9.25L77.08 9.25L77.08 9.25Q76.44 8.64 76.44 8.19L76.44 8.19L76.44 8.19Q76.44 7.25 77.45 7.25L77.45 7.25L77.45 7.25Q77.97 7.25 78.36 7.80L78.36 7.80L78.36 7.80Q78.64 8.18 78.76 8.68L78.76 8.68L78.76 8.68Q78.96 8.75 79.25 8.75L79.25 8.75L79.25 8.75Q79.66 8.75 80.19 8.48L80.19 8.48L80.56 8.30L80.56 8.30Q80.72 8.22 80.85 8.22L80.85 8.22L80.85 8.22Q81.26 8.22 81.66 9.41L81.66 9.41L81.66 9.41Q81.54 9.95 81.39 10.46L81.39 10.46L81.39 10.46Q81.24 10.96 81.05 11.68L81.05 11.68L81.05 11.68Q80.85 12.39 80.84 12.63L80.84 12.63L80.84 12.63Q80.84 12.88 80.99 12.88L80.99 12.88L80.99 12.88Q81.20 12.88 81.51 12.61L81.51 12.61L81.51 12.61Q81.82 12.35 82.12 12.03L82.12 12.03L82.12 12.03Q82.43 11.72 82.69 11.45L82.69 11.45L82.69 11.45Q82.95 11.19 83.05 11.19L83.05 11.19L83.05 11.19Q83.24 11.19 83.24 11.66L83.24 11.66L83.24 11.66Q83.24 12.63 82.40 13.57L82.40 13.57L82.40 13.57Q81.55 14.50 80.46 14.49L80.46 14.49L80.46 14.49Q79.81 14.49 79.49 13.97L79.49 13.97L79.49 13.97Q79.17 13.45 79.16 12.71L79.16 12.71L79.16 12.71Q79.16 11.24 79.81 9.93L79.81 9.93L79.81 9.93Q79.51 10.05 79.12 10.05L79.12 10.05L79.12 10.05Q78.74 10.05 78.57 10.02L78.57 10.02L78.57 10.02Q78.44 10.56 78.32 11.10L78.32 11.10L78.32 11.10Q78.19 11.63 78.19 12.10Z"></path></g><!----><g data-v-423bf9ae="" id="8c657b0a-ae6e-477f-88e8-eda306e26383" transform="matrix(1.521557781662634,0,0,1.521557781662634,0.9222907050360476,1.0000452630597465)" stroke="none" fill="black"><path d="M95.295 8.155C93.763 1.389 78.214-2.362 70.184 1.646c-2.884 1.44-5.986 4.477-8.433 7.626H38.25c-2.447-3.149-5.549-6.186-8.433-7.626-8.031-4.008-23.58-.257-25.112 6.509C2.247 19.002-5.129 57.326 5.869 58.98c10.235 1.54 20.609-7.624 27.742-18.169H66.39C73.522 51.356 83.897 60.52 94.131 58.98c10.998-1.654 3.622-39.978 1.164-50.825zM19.896 27.408a7.188 7.188 0 1 1 0-14.376 7.188 7.188 0 0 1 0 14.376zm60.208 0a7.188 7.188 0 1 1 7.188-7.188 7.186 7.186 0 0 1-7.188 7.188z"></path></g><!----></svg>